<svg width="213" height="30" viewBox="0 0 213 30" fill="none" xmlns="http://www.w3.org/2000/svg">
<path d="M9.72 29.12C7.66667 29.12 5.8 28.7733 4.12 28.08C2.44 27.36 1.06667 26.3333 0 25L4.32 19.88C5.81333 21.8267 7.42667 22.8 9.16 22.8C10.3067 22.8 11.1733 22.4533 11.76 21.76C12.3733 21.0667 12.68 20.0533 12.68 18.72V6.68H3V0.559999H20.52V18.24C20.52 21.8667 19.6 24.5867 17.76 26.4C15.9467 28.2133 13.2667 29.12 9.72 29.12Z" fill="#F58634"/>
<path d="M39.9856 29.12C37.0256 29.12 34.359 28.4933 31.9856 27.24C29.639 25.9867 27.7856 24.2533 26.4256 22.04C25.0923 19.8267 24.4256 17.3333 24.4256 14.56C24.4256 11.7867 25.0923 9.29333 26.4256 7.08C27.7856 4.86667 29.639 3.13333 31.9856 1.88C34.359 0.626666 37.0256 0 39.9856 0C42.9456 0 45.599 0.626666 47.9456 1.88C50.319 3.13333 52.1723 4.86667 53.5056 7.08C54.8656 9.29333 55.5456 11.7867 55.5456 14.56C55.5456 17.3333 54.8656 19.8267 53.5056 22.04C52.1723 24.2533 50.319 25.9867 47.9456 27.24C45.599 28.4933 42.9456 29.12 39.9856 29.12ZM39.9856 22.56C41.399 22.56 42.679 22.2267 43.8256 21.56C44.9723 20.8933 45.879 19.96 46.5456 18.76C47.2123 17.5333 47.5456 16.1333 47.5456 14.56C47.5456 12.9867 47.2123 11.6 46.5456 10.4C45.879 9.17333 44.9723 8.22667 43.8256 7.56C42.679 6.89333 41.399 6.56 39.9856 6.56C38.5723 6.56 37.2923 6.89333 36.1456 7.56C34.999 8.22667 34.0923 9.17333 33.4256 10.4C32.759 11.6 32.4256 12.9867 32.4256 14.56C32.4256 16.1333 32.759 17.5333 33.4256 18.76C34.0923 19.96 34.999 20.8933 36.1456 21.56C37.2923 22.2267 38.5723 22.56 39.9856 22.56Z" fill="#F58634"/>
<path d="M84.9738 28.56L84.8938 13.72L77.6938 25.8H74.1738L67.0138 14.12V28.56H59.6937V0.559999H66.2138L76.0538 16.72L85.6538 0.559999H92.1738L92.2538 28.56H84.9738Z" fill="#F58634"/>
<path d="M116.618 23.12H104.778L102.578 28.56H94.4978L106.858 0.559999H114.658L127.058 28.56H118.818L116.618 23.12ZM114.298 17.28L110.698 8.32L107.098 17.28H114.298Z" fill="#F58634"/>
<path d="M141.543 21.12H137.223V28.56H129.303V0.559999H142.103C144.636 0.559999 146.836 0.986667 148.703 1.84C150.57 2.66667 152.01 3.86667 153.023 5.44C154.036 6.98667 154.543 8.81333 154.543 10.92C154.543 12.9467 154.063 14.72 153.103 16.24C152.17 17.7333 150.823 18.9067 149.063 19.76L155.103 28.56H146.623L141.543 21.12ZM146.543 10.92C146.543 9.61333 146.13 8.6 145.303 7.88C144.476 7.16 143.25 6.8 141.623 6.8H137.223V15H141.623C143.25 15 144.476 14.6533 145.303 13.96C146.13 13.24 146.543 12.2267 146.543 10.92Z" fill="white"/>
<path d="M181.393 22.44V28.56H158.913V0.559999H180.872V6.68H166.753V11.4H179.193V17.32H166.753V22.44H181.393Z" fill="white"/>
<path d="M203.233 28.56L197.433 19.88L191.713 28.56H182.673L192.873 14.4L183.113 0.559999H192.033L197.633 8.64L203.153 0.559999H211.713L201.953 14.08L212.353 28.56H203.233Z" fill="white"/>
</svg>
